<svg xmlns="http://www.w3.org/2000/svg" width="512" height="512" viewBox="0 0 512 512">
  <g id="Group_9" data-name="Group 9" transform="translate(-528 -140)">
    <rect id="Rectangle_3" data-name="Rectangle 3" width="512" height="512" transform="translate(528 140)" fill="none"/>
    <g id="Group_8" data-name="Group 8" transform="translate(-22 -22)">
      <g id="Group_2" data-name="Group 2" transform="translate(557.559 189.934)">
        <path id="Path_1" data-name="Path 1" d="M166.663,16.373l60.9,85.859c14.9,0,51.084,50.9,51.084,64.343,0,0,10.276,4.562,26.842,16.056,5.717,3.965,7.985,8.158,14.356,16.135,1.905,2.381,14.359-7.368,14.359,0V407.571c0,13.447-12.082,24.347-26.985,24.347H26.985c-14.9,0-26.985-10.9-26.985-24.347V207.7l12.181-7.952s23.051-37.235,23.051-39.686h0l28.986-23.075C64.218,123.538,151.759,16.373,166.663,16.373Z" transform="translate(81.094 2.765)" fill="#035ece"/>
        <g id="Group_1" data-name="Group 1" transform="translate(0 0)">
          <rect id="Rectangle_1" data-name="Rectangle 1" width="382.874" height="42.116" rx="21.058" transform="translate(251.334 0.193) rotate(50)" fill="#2488ff"/>
          <rect id="Rectangle_2" data-name="Rectangle 2" width="382.874" height="42.116" rx="21.058" transform="translate(278.37 27.072) rotate(130)" fill="#2488ff"/>
        </g>
      </g>
      <g id="raspberrypi" transform="translate(711.5 361.168)">
        <g id="Group_3" data-name="Group 3" transform="translate(0)">
          <path id="Path_2" data-name="Path 2" d="M51.318,0a7.065,7.065,0,0,0-4.029,1.727c-3.645-1.381-7.175-1.88-10.36.959-4.873-.614-6.485.652-7.674,2.187-1.074-.038-8.02-1.113-11.2,3.569C10.03,7.521,7.5,13.085,10.376,18.3c-1.65,2.494-3.338,4.95.5,9.708-1.343,2.648-.5,5.525,2.686,9.017-.844,3.722.806,6.37,3.8,8.4-.537,5.1,4.758,8.058,6.331,9.132.614,2.955,1.88,5.756,7.943,7.329,1,4.413,4.643,5.18,8.173,6.139C28.141,74.709,18.165,83.5,18.242,105.022l-1.688,2.993c-13.353,8.02-25.363,33.728-6.6,54.64,1.228,6.561,3.3,11.243,5.1,16.461C17.781,200.067,35.7,209.89,40.42,211.041c6.907,5.18,14.274,10.13,24.251,13.545,9.4,9.554,19.569,13.2,29.814,13.161h.46c10.245,0,20.413-3.645,29.814-13.161,9.976-3.453,17.344-8.365,24.251-13.545,4.72-1.151,22.6-10.974,25.363-31.925,1.842-5.218,3.875-9.9,5.1-16.461,18.8-20.912,6.792-46.621-6.6-54.64l-1.727-2.993c.077-21.526-9.938-30.313-21.565-36.99,3.53-.921,7.175-1.688,8.173-6.139,6.063-1.535,7.329-4.336,7.943-7.329,1.573-1.074,6.868-4.029,6.331-9.132,2.955-2.034,4.6-4.681,3.8-8.4,3.185-3.492,4.029-6.37,2.686-9.017,3.837-4.758,2.149-7.214.5-9.708,2.878-5.218.345-10.782-7.674-9.861-3.185-4.681-10.13-3.607-11.2-3.607-1.19-1.5-2.8-2.8-7.674-2.187-3.146-2.839-6.715-2.341-10.36-.959-4.336-3.377-7.214-.652-10.475.345-5.372-1.65-6.6.652-9.171,1.612-5.717-1.19-7.482,1.42-10.207,4.144l-.192-.077a3.416,3.416,0,0,0-2.993.038h0C100.433,12.778,96.135,22.984,94.639,28.2,93.1,22.946,88.844,12.739,80.211,7.751l-.153-.077a3.417,3.417,0,0,0-2.993.115l-.038.038C74.263,5.1,72.537,2.494,66.819,3.684,64.249,2.724,63.059.422,57.8,2.11,55.653,1.458,54.387-.038,52.047.038Z" transform="translate(-0.274)" fill="none"/>
        </g>
        <path id="Path_3" data-name="Path 3" d="M58.147,31.939C81.055,43.566,94.369,52.966,101.66,60.986c-3.722,14.735-23.215,15.425-30.352,15,1.458-.652,2.686-1.458,3.108-2.686-1.8-1.266-8.135-.115-12.547-2.571,1.688-.345,2.494-.691,3.3-1.919-4.182-1.3-8.672-2.456-11.319-4.6,1.42,0,2.763.307,4.643-.959-3.76-2.034-7.751-3.607-10.859-6.638,1.919-.038,4.029,0,4.643-.729a42.515,42.515,0,0,1-8.71-6.945c2.724.307,3.837.038,4.528-.422-2.609-2.609-5.871-4.835-7.444-8.058,2,.691,3.837.959,5.18-.077-.883-1.957-4.643-3.108-6.83-7.674,2.11.192,4.374.46,4.8,0a22.762,22.762,0,0,0-4.336-8.48c4.528-.077,11.4,0,11.089-.345l-2.8-2.839c4.413-1.19,8.94.192,12.24,1.19,1.458-1.151-.038-2.609-1.842-4.067A44.5,44.5,0,0,1,68.392,20.7c1.65-1.458-1.074-2.916-2.379-4.374a26.191,26.191,0,0,1,10.744,4.144c1.765-1.688.115-3.108-1.113-4.566a26.087,26.087,0,0,1,9.017,5.717c.806-1.074,2.034-1.842.537-4.451a22.532,22.532,0,0,1,7.175,6.178c1.919-1.19,1.151-2.878,1.151-4.374,3.223,2.609,5.3,5.334,7.789,8.058.5-.345.959-1.612,1.343-3.53,7.713,7.367,18.61,25.939,2.8,33.306C92.067,45.829,75.99,37.887,58.147,31.939Z" transform="translate(-24.14 -9.799)" fill="#031f41"/>
        <path id="Path_4" data-name="Path 4" d="M316.111,32C293.2,43.627,279.888,53.028,272.6,61.048c3.722,14.734,23.215,15.425,30.352,15-1.458-.652-2.686-1.458-3.108-2.686,1.8-1.266,8.135-.115,12.547-2.571-1.688-.345-2.494-.691-3.3-1.919,4.182-1.3,8.672-2.456,11.319-4.6-1.42,0-2.763.307-4.643-.959,3.76-2,7.751-3.569,10.859-6.6-1.919-.038-4.029,0-4.643-.729a42.516,42.516,0,0,0,8.71-6.945c-2.724.307-3.837.038-4.528-.422,2.609-2.609,5.871-4.835,7.444-8.058-2,.691-3.837.959-5.18-.077.883-1.957,4.643-3.108,6.83-7.674-2.11.192-4.374.46-4.8,0a22.762,22.762,0,0,1,4.336-8.48c-4.528-.077-11.4,0-11.089-.345l2.8-2.839c-4.413-1.19-8.979.192-12.24,1.19-1.458-1.151.038-2.609,1.842-4.067A44.5,44.5,0,0,0,305.866,20.8c-1.65-1.458,1.074-2.916,2.379-4.374A26.191,26.191,0,0,0,297.5,20.566c-1.765-1.688-.115-3.108,1.113-4.566a26.087,26.087,0,0,0-9.017,5.717c-.806-1.074-2.034-1.842-.537-4.451a22.533,22.533,0,0,0-7.175,6.178c-1.919-1.19-1.151-2.878-1.151-4.374-3.223,2.609-5.3,5.334-7.789,8.058-.5-.345-.959-1.612-1.343-3.53-7.713,7.367-18.61,25.939-2.8,33.306,13.43-11.013,29.507-18.955,47.312-24.9Z" transform="translate(-160.774 -9.861)" fill="#031f41"/>
        <g id="Group_7" data-name="Group 7" transform="translate(8.791 66.835)">
          <path id="Path_5" data-name="Path 5" d="M231.07,408.856c.077,13.775-12.125,24.98-27.282,25.056S176.276,422.9,176.2,409.124v-.269c-.077-13.775,12.125-24.98,27.282-25.056s27.512,11.013,27.589,24.788Z" transform="translate(-117.485 -303.366)" fill="#031f41"/>
          <g id="Group_4" data-name="Group 4" transform="translate(28.692 29.517)">
            <path id="Path_6" data-name="Path 6" d="M140.067,257.969c11.358,7.329,13.43,23.982,4.566,37.143-8.825,13.161-25.21,17.919-36.606,10.59h0c-11.358-7.329-13.43-23.982-4.566-37.143s25.248-17.919,36.606-10.59Z" transform="translate(-97.957 -253.213)" fill="#031f41"/>
            <path id="Path_7" data-name="Path 7" d="M271.527,254.557c-11.358,7.329-13.43,23.982-4.566,37.143,8.825,13.161,25.21,17.919,36.606,10.59h0c11.358-7.329,13.43-23.982,4.566-37.143-8.864-13.2-25.248-17.919-36.606-10.59Z" transform="translate(-198.721 -251.105)" fill="#031f41"/>
          </g>
          <g id="Group_5" data-name="Group 5" transform="translate(0 45.566)">
            <path id="Path_8" data-name="Path 8" d="M37.886,294.774c12.279-3.223,4.144,50-5.832,45.662C21.041,331.725,17.511,306.208,37.886,294.774Z" transform="translate(-23.183 -293.981)" fill="#031f41"/>
            <path id="Path_9" data-name="Path 9" d="M421.157,293.074c-12.279-3.223-4.144,50,5.832,45.662,11.013-8.749,14.543-34.227-5.832-45.662Z" transform="translate(-264.635 -292.933)" fill="#031f41"/>
          </g>
          <path id="Path_10" data-name="Path 10" d="M322.351,188.744c21.181-3.53,38.793,8.864,38.1,31.5C359.763,228.919,314.562,190.049,322.351,188.744Z" transform="translate(-207.001 -182.79)" fill="#031f41"/>
          <path id="Path_11" data-name="Path 11" d="M110.071,187.045c-21.181-3.53-38.793,8.864-38.1,31.5C72.7,227.219,117.9,188.311,110.071,187.045Z" transform="translate(-53.237 -181.742)" fill="#031f41"/>
          <path id="Path_12" data-name="Path 12" d="M207.588,174.188c-12.624-.307-24.788,9.247-24.788,14.773-.038,6.753,9.976,13.66,24.9,13.814,15.195.115,24.9-5.525,24.98-12.471,0-7.866-13.89-16.231-25.095-16.116Z" transform="translate(-121.553 -174.181)" fill="#031f41"/>
          <path id="Path_13" data-name="Path 13" d="M205.648,534.441c11.013-.461,25.824,3.492,25.824,8.749.192,5.1-13.43,16.653-26.553,16.461-13.622.576-26.975-11.012-26.821-15-.192-5.871,16.615-10.475,27.55-10.207Z" transform="translate(-118.654 -396.183)" fill="#031f41"/>
          <g id="Group_6" data-name="Group 6" transform="translate(13.934 89.827)">
            <path id="Path_14" data-name="Path 14" d="M91.769,431.636c7.828,9.324,11.435,25.67,4.873,30.505-6.178,3.684-21.258,2.149-31.925-12.969-7.214-12.7-6.293-25.632-1.228-29.431,7.6-4.566,19.262,1.573,28.279,11.895Z" transform="translate(-59.498 -414.4)" fill="#031f41"/>
            <path id="Path_15" data-name="Path 15" d="M333.7,422.563c-8.48,9.785-13.2,27.666-7.022,33.421,5.909,4.451,21.833,3.837,33.575-12.2,8.518-10.782,5.679-28.778.806-33.575-7.252-5.525-17.651,1.535-27.359,12.355Z" transform="translate(-222.42 -408.282)" fill="#031f41"/>
          </g>
        </g>
      </g>
    </g>
  </g>
</svg>
